<mxfile host="app.diagrams.net" modified="2023-12-24T11:47:02.686Z" agent="Mozilla/5.0 (Windows NT 10.0; Win64; x64) AppleWebKit/537.36 (KHTML, like Gecko) Chrome/120.0.0.0 Safari/537.36" etag="iay9M5e1XvpLIc_XMP1f" version="22.1.11" type="github">
  <diagram id="R2lEEEUBdFMjLlhIrx00" name="Page-1">
    <mxGraphModel dx="1036" dy="597" grid="1" gridSize="10" guides="1" tooltips="1" connect="1" arrows="1" fold="1" page="1" pageScale="1" pageWidth="850" pageHeight="1100" math="0" shadow="0" extFonts="Permanent Marker^https://fonts.googleapis.com/css?family=Permanent+Marker">
      <root>
        <mxCell id="0" />
        <mxCell id="1" parent="0" />
        <mxCell id="_hQyqM1gC9vZ-g44Jx-m-9" style="edgeStyle=orthogonalEdgeStyle;rounded=0;orthogonalLoop=1;jettySize=auto;html=1;exitX=1;exitY=0.5;exitDx=0;exitDy=0;entryX=0;entryY=0.5;entryDx=0;entryDy=0;" parent="1" source="_hQyqM1gC9vZ-g44Jx-m-1" edge="1">
          <mxGeometry relative="1" as="geometry">
            <mxPoint x="640" y="210" as="targetPoint" />
          </mxGeometry>
        </mxCell>
        <mxCell id="ghFBOrA_pYjS08y6-YFO-3" style="edgeStyle=none;curved=1;rounded=0;orthogonalLoop=1;jettySize=auto;html=1;fontSize=12;startSize=8;endSize=8;" edge="1" parent="1" source="_hQyqM1gC9vZ-g44Jx-m-1" target="_hQyqM1gC9vZ-g44Jx-m-10">
          <mxGeometry relative="1" as="geometry" />
        </mxCell>
        <mxCell id="_hQyqM1gC9vZ-g44Jx-m-1" value="Responded by" style="shape=rhombus;double=1;perimeter=rhombusPerimeter;whiteSpace=wrap;html=1;align=center;" parent="1" vertex="1">
          <mxGeometry x="380" y="180" width="120" height="60" as="geometry" />
        </mxCell>
        <mxCell id="_hQyqM1gC9vZ-g44Jx-m-21" style="edgeStyle=orthogonalEdgeStyle;rounded=0;orthogonalLoop=1;jettySize=auto;html=1;entryX=0;entryY=0.5;entryDx=0;entryDy=0;" parent="1" source="_hQyqM1gC9vZ-g44Jx-m-2" target="_hQyqM1gC9vZ-g44Jx-m-1" edge="1">
          <mxGeometry relative="1" as="geometry" />
        </mxCell>
        <mxCell id="ghFBOrA_pYjS08y6-YFO-4" style="edgeStyle=none;curved=1;rounded=0;orthogonalLoop=1;jettySize=auto;html=1;fontSize=12;startSize=8;endSize=8;" edge="1" parent="1" source="_hQyqM1gC9vZ-g44Jx-m-2" target="_hQyqM1gC9vZ-g44Jx-m-13">
          <mxGeometry relative="1" as="geometry">
            <Array as="points">
              <mxPoint x="200" y="150" />
            </Array>
          </mxGeometry>
        </mxCell>
        <mxCell id="ghFBOrA_pYjS08y6-YFO-5" value="" style="edgeStyle=none;curved=1;rounded=0;orthogonalLoop=1;jettySize=auto;html=1;fontSize=12;startSize=8;endSize=8;" edge="1" parent="1" source="_hQyqM1gC9vZ-g44Jx-m-2" target="_hQyqM1gC9vZ-g44Jx-m-23">
          <mxGeometry relative="1" as="geometry">
            <Array as="points">
              <mxPoint x="170" y="160" />
            </Array>
          </mxGeometry>
        </mxCell>
        <mxCell id="_hQyqM1gC9vZ-g44Jx-m-2" value="Questions" style="whiteSpace=wrap;html=1;align=center;" parent="1" vertex="1">
          <mxGeometry x="120" y="190" width="110" height="40" as="geometry" />
        </mxCell>
        <mxCell id="_hQyqM1gC9vZ-g44Jx-m-4" value="Expert" style="whiteSpace=wrap;html=1;align=center;" parent="1" vertex="1">
          <mxGeometry x="130" y="490" width="100" height="40" as="geometry" />
        </mxCell>
        <mxCell id="_hQyqM1gC9vZ-g44Jx-m-6" style="edgeStyle=orthogonalEdgeStyle;rounded=0;orthogonalLoop=1;jettySize=auto;html=1;entryX=0.5;entryY=0;entryDx=0;entryDy=0;" parent="1" source="_hQyqM1gC9vZ-g44Jx-m-5" target="_hQyqM1gC9vZ-g44Jx-m-4" edge="1">
          <mxGeometry relative="1" as="geometry" />
        </mxCell>
        <mxCell id="ghFBOrA_pYjS08y6-YFO-6" value="" style="edgeStyle=none;curved=1;rounded=0;orthogonalLoop=1;jettySize=auto;html=1;fontSize=12;startSize=8;endSize=8;" edge="1" parent="1" source="_hQyqM1gC9vZ-g44Jx-m-5" target="_hQyqM1gC9vZ-g44Jx-m-12">
          <mxGeometry relative="1" as="geometry" />
        </mxCell>
        <mxCell id="ghFBOrA_pYjS08y6-YFO-7" style="edgeStyle=none;curved=1;rounded=0;orthogonalLoop=1;jettySize=auto;html=1;fontSize=12;startSize=8;endSize=8;" edge="1" parent="1" source="_hQyqM1gC9vZ-g44Jx-m-5" target="_hQyqM1gC9vZ-g44Jx-m-11">
          <mxGeometry relative="1" as="geometry" />
        </mxCell>
        <mxCell id="_hQyqM1gC9vZ-g44Jx-m-5" value="Examines" style="shape=rhombus;double=1;perimeter=rhombusPerimeter;whiteSpace=wrap;html=1;align=center;" parent="1" vertex="1">
          <mxGeometry x="120" y="320" width="120" height="60" as="geometry" />
        </mxCell>
        <mxCell id="_hQyqM1gC9vZ-g44Jx-m-7" style="edgeStyle=orthogonalEdgeStyle;rounded=0;orthogonalLoop=1;jettySize=auto;html=1;exitX=0.5;exitY=0;exitDx=0;exitDy=0;entryX=0.608;entryY=0.95;entryDx=0;entryDy=0;entryPerimeter=0;" parent="1" source="_hQyqM1gC9vZ-g44Jx-m-5" target="_hQyqM1gC9vZ-g44Jx-m-2" edge="1">
          <mxGeometry relative="1" as="geometry">
            <Array as="points">
              <mxPoint x="180" y="228" />
            </Array>
          </mxGeometry>
        </mxCell>
        <mxCell id="_hQyqM1gC9vZ-g44Jx-m-10" value="response" style="ellipse;whiteSpace=wrap;html=1;align=center;" parent="1" vertex="1">
          <mxGeometry x="390" y="80" width="100" height="40" as="geometry" />
        </mxCell>
        <mxCell id="_hQyqM1gC9vZ-g44Jx-m-11" value="Attribute" style="ellipse;whiteSpace=wrap;html=1;align=center;" parent="1" vertex="1">
          <mxGeometry x="260" y="300" width="100" height="40" as="geometry" />
        </mxCell>
        <mxCell id="_hQyqM1gC9vZ-g44Jx-m-12" value="Attribute" style="ellipse;whiteSpace=wrap;html=1;align=center;" parent="1" vertex="1">
          <mxGeometry x="260" y="360" width="100" height="40" as="geometry" />
        </mxCell>
        <mxCell id="_hQyqM1gC9vZ-g44Jx-m-13" value="ID" style="ellipse;whiteSpace=wrap;html=1;align=center;" parent="1" vertex="1">
          <mxGeometry x="190" y="100" width="100" height="40" as="geometry" />
        </mxCell>
        <mxCell id="_hQyqM1gC9vZ-g44Jx-m-14" value="User" style="whiteSpace=wrap;html=1;align=center;" parent="1" vertex="1">
          <mxGeometry x="640" y="190" width="100" height="40" as="geometry" />
        </mxCell>
        <mxCell id="_hQyqM1gC9vZ-g44Jx-m-23" value="Raised by" style="ellipse;whiteSpace=wrap;html=1;align=center;" parent="1" vertex="1">
          <mxGeometry x="80" y="100" width="100" height="40" as="geometry" />
        </mxCell>
        <mxCell id="ghFBOrA_pYjS08y6-YFO-1" value="&lt;span style=&quot;border-bottom: 1px dotted&quot;&gt;correct reponse&lt;/span&gt;" style="ellipse;whiteSpace=wrap;html=1;align=center;fontSize=16;" vertex="1" parent="1">
          <mxGeometry x="30" y="260" width="100" height="40" as="geometry" />
        </mxCell>
        <mxCell id="ghFBOrA_pYjS08y6-YFO-2" style="edgeStyle=none;curved=1;rounded=0;orthogonalLoop=1;jettySize=auto;html=1;entryX=0.348;entryY=0.005;entryDx=0;entryDy=0;entryPerimeter=0;fontSize=12;startSize=8;endSize=8;" edge="1" parent="1" source="_hQyqM1gC9vZ-g44Jx-m-2" target="ghFBOrA_pYjS08y6-YFO-1">
          <mxGeometry relative="1" as="geometry">
            <Array as="points">
              <mxPoint x="60" y="210" />
            </Array>
          </mxGeometry>
        </mxCell>
      </root>
    </mxGraphModel>
  </diagram>
</mxfile>
